<svg width="25" height="24" viewBox="0 0 25 24" fill="none" xmlns="http://www.w3.org/2000/svg">
<path d="M21.1633 18.771C21.1633 18.771 20.0047 19.909 19.7207 20.2426C19.2582 20.7362 18.7132 20.9693 17.9988 20.9693C17.9301 20.9693 17.8568 20.9693 17.7881 20.9647C16.4279 20.8779 15.1639 20.3477 14.2159 19.8953C11.6238 18.643 9.34771 16.8651 7.45629 14.6119C5.89461 12.7335 4.85044 10.9968 4.15891 9.13211C3.733 7.99409 3.57729 7.10744 3.64598 6.27107C3.69178 5.73634 3.89787 5.29302 4.27798 4.91368L5.83966 3.35519C6.06406 3.14496 6.30221 3.0307 6.53577 3.0307C6.82429 3.0307 7.05786 3.20437 7.20441 3.35062C7.20899 3.35519 7.21357 3.35977 7.21815 3.36434C7.49751 3.62485 7.76313 3.8945 8.04249 4.18243C8.18446 4.32868 8.33101 4.47493 8.47756 4.62575L9.72782 5.87345C10.2133 6.35791 10.2133 6.8058 9.72782 7.29026C9.59501 7.4228 9.46678 7.55534 9.33397 7.68331C8.94927 8.07636 9.25147 7.77477 8.85304 8.13126C8.84388 8.1404 8.83472 8.14497 8.83014 8.15411C8.43629 8.54716 8.50956 8.93107 8.592 9.19158C8.59658 9.20529 8.60116 9.219 8.60573 9.23271C8.93089 10.0188 9.38886 10.7592 10.085 11.6413L10.0896 11.6459C11.3536 13.1998 12.6862 14.4109 14.1563 15.3387C14.3441 15.4575 14.5364 15.5535 14.7196 15.6449C14.8845 15.7272 15.0402 15.8049 15.173 15.8871C15.1913 15.8963 15.2097 15.91 15.228 15.9191C15.3837 15.9968 15.5302 16.0334 15.6814 16.0334C16.0615 16.0334 16.2996 15.7957 16.3775 15.718L17.2752 14.8222C17.4309 14.6668 17.6782 14.4794 17.9667 14.4794C18.2506 14.4794 18.4842 14.6576 18.6262 14.813C18.6308 14.8176 18.6308 14.8176 18.6353 14.8222L21.1587 17.3404C21.6305 17.8066 21.1633 18.771 21.1633 18.771Z" fill="white"/>
</svg>
